<svg xmlns="http://www.w3.org/2000/svg" viewBox="0 0 64 64">
  <defs>
    <linearGradient id="rvGradient" x1="12" y1="10" x2="54" y2="56" gradientUnits="userSpaceOnUse">
      <stop offset="0" stop-color="#38bdf8"/>
      <stop offset="0.52" stop-color="#60a5fa"/>
      <stop offset="1" stop-color="#7c3aed"/>
    </linearGradient>
    <filter id="glow" x="-40%" y="-40%" width="180%" height="180%">
      <feGaussianBlur stdDeviation="2.4" result="blur"/>
      <feColorMatrix in="blur" type="matrix" values="0 0 0 0 0.22 0 0 0 0 0.51 0 0 0 0 0.96 0 0 0 0.75 0"/>
      <feMerge>
        <feMergeNode/>
        <feMergeNode in="SourceGraphic"/>
      </feMerge>
    </filter>
  </defs>
  <rect width="64" height="64" rx="16" fill="#030817"/>
  <path d="M11 45V18h15.2c6.5 0 10.5 3.8 10.5 9.2 0 3.8-2 6.8-5.4 8.2L38 45h-8.4l-5.7-8.4h-5.1V45H11Zm7.8-14.7h6.4c2.4 0 3.8-1.2 3.8-3.1s-1.4-3.1-3.8-3.1h-6.4v6.2Z" fill="url(#rvGradient)" filter="url(#glow)"/>
  <path d="M39.1 45 29.6 18h8.5l5.8 18.1L49.8 18H58L48.5 45h-9.4Z" fill="url(#rvGradient)" filter="url(#glow)"/>
</svg>
