<svg xmlns="http://www.w3.org/2000/svg" viewBox="0 0 1200 675">
  <defs><linearGradient id="bg" x1="0" y1="0" x2="1" y2="1"><stop stop-color="#fffaf5"/><stop offset="1" stop-color="#eeeae2"/></linearGradient><filter id="s"><feDropShadow dx="0" dy="18" stdDeviation="24" flood-opacity=".14"/></filter></defs>
  <rect width="1200" height="675" fill="url(#bg)"/><circle cx="1060" cy="90" r="210" fill="#ff725f" opacity=".08"/><circle cx="95" cy="590" r="180" fill="#ff725f" opacity=".06"/>
  <g filter="url(#s)"><rect x="270" y="95" width="660" height="485" rx="36" fill="white"/><rect x="365" y="135" width="470" height="50" rx="16" fill="#f1efeb"/><rect x="379" y="144" width="142" height="32" rx="11" fill="white"/><text x="450" y="165" fill="#d84f40" font-family="Arial" font-size="15" text-anchor="middle" font-weight="700">POMODORO</text><text x="600" y="385" fill="#272727" font-family="Arial" font-size="168" text-anchor="middle" font-weight="700" letter-spacing="-15">25:00</text><rect x="375" y="425" width="450" height="6" rx="3" fill="#eeeae4"/><rect x="375" y="425" width="140" height="6" rx="3" fill="#ff725f"/><rect x="492" y="465" width="216" height="64" rx="16" fill="#ff725f"/><polygon points="574,483 574,511 599,497" fill="white"/><text x="625" y="504" fill="white" font-family="Arial" font-size="20" font-weight="700">COMEÇAR</text></g>
  <rect x="436" y="45" width="43" height="43" rx="12" fill="#ff725f" transform="rotate(-7 457 67)"/><path d="m447 66 8 8 14-18" fill="none" stroke="white" stroke-width="5" stroke-linecap="round" stroke-linejoin="round"/><text x="495" y="77" fill="#272727" font-family="Arial" font-size="34" font-weight="800">Foco<tspan fill="#ff725f">.</tspan></text>
</svg>
